<svg width="17" height="21" viewBox="0 0 17 21" fill="none" xmlns="http://www.w3.org/2000/svg">
<path d="M8.76042 0.0336914C4.42665 0.0336914 0.900879 3.51592 0.900879 7.79618C0.900879 10.2035 2.16206 12.9995 4.64941 16.1064C6.46947 18.3798 8.26332 19.951 8.33879 20.0168C8.57968 20.2267 8.94112 20.2267 9.18205 20.0168C9.25752 19.951 11.0514 18.3798 12.8714 16.1064C15.3588 12.9995 16.62 10.2035 16.62 7.79618C16.62 3.51592 13.0942 0.0336914 8.76042 0.0336914V0.0336914ZM8.76042 18.6862C7.24593 17.2607 2.1754 12.1611 2.1754 7.79618C2.1754 4.21002 5.12943 1.29248 8.76042 1.29248C12.3914 1.29248 15.3454 4.21002 15.3454 7.79618C15.3454 12.1611 10.2748 17.2607 8.76042 18.6862Z" fill="#868889"/>
<path d="M13.6357 7.42348L9.17491 3.64713C8.93626 3.4451 8.58413 3.4451 8.34548 3.64713L3.88465 7.42348C3.61744 7.64967 3.58649 8.04705 3.81555 8.31096C4.0446 8.57488 4.44691 8.60544 4.71412 8.37921L5.25524 7.9211V11.0483C5.25524 11.3959 5.54057 11.6777 5.8925 11.6777H11.6279C11.9798 11.6777 12.2651 11.3959 12.2651 11.0483V7.9211L12.8063 8.37921C13.0747 8.60646 13.4768 8.5737 13.7048 8.31096C13.9339 8.04705 13.903 7.64971 13.6357 7.42348ZM10.9906 10.4189H6.52976V6.84212L8.76018 4.95395L10.9906 6.84212V10.4189Z" fill="#868889"/>
</svg>
