<svg width="20" height="14" viewBox="0 0 20 14" fill="none" xmlns="http://www.w3.org/2000/svg">
<path d="M17.9186 0.665039H2.08354C0.935099 0.665039 0 1.60014 0 2.74862V11.9163C0 13.0647 0.935099 13.9998 2.08354 13.9998H17.9185C19.067 13.9998 20.0021 13.0647 20.0021 11.9163V2.74862C20.0021 1.60014 19.067 0.665039 17.9186 0.665039ZM19.1687 11.9162C19.1687 12.6055 18.6078 13.1664 17.9186 13.1664H2.08354C1.39429 13.1664 0.833409 12.6055 0.833409 11.9162V2.74862C0.833409 2.05937 1.39429 1.49849 2.08354 1.49849H17.9185C18.6078 1.49849 19.1687 2.05937 19.1687 2.74862V11.9162H19.1687Z" fill="#9DD549"/>
<path d="M19.5859 3.16553H0.417212C0.187188 3.16553 0.000488281 3.35223 0.000488281 3.58225V6.08252C0.000488281 6.31254 0.187188 6.49924 0.417212 6.49924H19.5859C19.816 6.49924 20.0027 6.31254 20.0027 6.08252V3.58225C20.0026 3.35223 19.8159 3.16553 19.5859 3.16553ZM19.1692 5.66579H0.833897V3.99894H19.1692V5.66579H19.1692Z" fill="#9DD549"/>
<path d="M7.91774 8.99951H2.91721C2.68719 8.99951 2.50049 9.18621 2.50049 9.41624C2.50049 9.64626 2.68719 9.83292 2.91721 9.83292H7.91774C8.14777 9.83292 8.33447 9.64622 8.33447 9.4162C8.33447 9.18617 8.14777 8.99951 7.91774 8.99951Z" fill="#9DD549"/>
<path d="M7.91774 10.6665H2.91721C2.68719 10.6665 2.50049 10.8532 2.50049 11.0832C2.50049 11.3133 2.68719 11.5 2.91721 11.5H7.91774C8.14777 11.5 8.33447 11.3133 8.33447 11.0832C8.33443 10.8532 8.14777 10.6665 7.91774 10.6665Z" fill="#9DD549"/>
<path d="M16.252 8.16602H15.4186C14.7293 8.16602 14.1685 8.7269 14.1685 9.41615V10.2496C14.1685 10.9388 14.7293 11.4997 15.4186 11.4997H16.252C16.9413 11.4997 17.5021 10.9388 17.5021 10.2496V9.41615C17.5021 8.72693 16.9413 8.16602 16.252 8.16602ZM16.6687 10.2496C16.6687 10.4796 16.482 10.6663 16.252 10.6663H15.4186C15.1886 10.6663 15.0019 10.4796 15.0019 10.2496V9.41619C15.0019 9.18616 15.1886 8.99946 15.4186 8.99946H16.252C16.482 8.99946 16.6687 9.18616 16.6687 9.41619V10.2496Z" fill="#9DD549"/>
</svg>
