<svg width="15" height="18" viewBox="0 0 18 18" fill="none" xmlns="http://www.w3.org/2000/svg">
<path d="M12.75 1.5L15.75 4.5M15.75 4.5L12.75 7.5M15.75 4.5H5.85C4.58988 4.5 3.95982 4.5 3.47852 4.74524C3.05516 4.96095 2.71095 5.30516 2.49524 5.72852C2.25 6.20982 2.25 6.83988 2.25 8.1V8.25M2.25 13.5H12.15C13.4101 13.5 14.0402 13.5 14.5215 13.2548C14.9448 13.039 15.289 12.6948 15.5048 12.2715C15.75 11.7902 15.75 11.1601 15.75 9.9V9.75M2.25 13.5L5.25 16.5M2.25 13.5L5.25 10.5" stroke="#666161" stroke-width="1.66667" stroke-linecap="round" stroke-linejoin="round"/>
</svg>
