<svg width="16" height="17" viewBox="0 0 16 17" fill="none" xmlns="http://www.w3.org/2000/svg">
<path d="M5.09451 10.5C5.42755 11.7939 6.60212 12.75 8 12.75C9.39788 12.75 10.5725 11.7939 10.9055 10.5M7.26327 2.073L2.17654 6.02934C1.83652 6.29381 1.6665 6.42604 1.54402 6.59164C1.43552 6.73833 1.3547 6.90359 1.30552 7.07929C1.25 7.27764 1.25 7.49302 1.25 7.92379V13.35C1.25 14.1901 1.25 14.6101 1.41349 14.931C1.5573 15.2132 1.78677 15.4427 2.06901 15.5865C2.38988 15.75 2.80992 15.75 3.65 15.75H12.35C13.1901 15.75 13.6101 15.75 13.931 15.5865C14.2132 15.4427 14.4427 15.2132 14.5865 14.931C14.75 14.6101 14.75 14.1901 14.75 13.35V7.92379C14.75 7.49302 14.75 7.27764 14.6945 7.07929C14.6453 6.90359 14.5645 6.73833 14.456 6.59164C14.3335 6.42604 14.1635 6.29381 13.8235 6.02934L8.73673 2.073C8.47324 1.86806 8.34149 1.76559 8.19601 1.7262C8.06765 1.69145 7.93235 1.69145 7.80399 1.7262C7.65851 1.76559 7.52677 1.86806 7.26327 2.073Z" stroke="#85C525" stroke-width="1.66667" stroke-linecap="round" stroke-linejoin="round"/>
</svg>

