<svg width="21" height="20" viewBox="0 0 21 20" fill="none" xmlns="http://www.w3.org/2000/svg">
<path d="M4.57674 17.1541L4.25697 14.8945C4.21144 14.5729 3.91351 14.3484 3.5922 14.3945C3.27054 14.44 3.04672 14.7377 3.09224 15.0593L3.16384 15.5653C2.55319 14.8117 2.06696 13.9572 1.73012 13.0361C-0.654222 6.51712 5.10403 -0.0575745 11.8176 1.37454C12.1352 1.44214 12.4478 1.23973 12.5156 0.922028C12.5834 0.60433 12.3808 0.291847 12.0631 0.224049C4.48208 -1.39338 -2.09347 6.00689 0.625355 13.4403C1.00626 14.4818 1.55586 15.4487 2.24631 16.3018L1.67797 16.1926C1.35886 16.1314 1.05065 16.3402 0.989363 16.6592C0.928074 16.9783 1.137 17.2866 1.45599 17.3478L3.8332 17.8045C4.26132 17.9253 4.63352 17.5546 4.57674 17.1541Z" fill="#9DD549"/>
<path d="M19.4008 6.56554C19.0199 5.52402 18.4703 4.55712 17.7799 3.70402L18.3483 3.81318C18.6671 3.87436 18.9756 3.66555 19.0369 3.34656C19.0982 3.02753 18.8892 2.71924 18.5702 2.65795L16.1926 2.20117C15.7699 2.0822 15.3918 2.44487 15.4495 2.85162L15.7693 5.11127C15.8108 5.40497 16.0625 5.61711 16.3509 5.61711C16.7104 5.61711 16.9839 5.29937 16.934 4.94642L16.8624 4.44039C17.473 5.19401 17.9593 6.04856 18.2961 6.96954C19.966 11.5352 17.6173 16.6105 13.0607 18.2833C11.5018 18.8556 9.82396 18.9758 8.20861 18.6312C7.89103 18.5634 7.57843 18.766 7.51063 19.0837C7.44283 19.4014 7.64544 19.7139 7.96314 19.7817C9.79581 20.1727 11.6987 20.0364 13.466 19.3876C18.6435 17.487 21.2978 11.752 19.4008 6.56554Z" fill="#9DD549"/>
<path d="M16.1105 10.0337C16.1105 6.66607 13.3753 3.92627 10.0133 3.92627C6.65123 3.92627 3.91602 6.66607 3.91602 10.0337C3.91602 13.4014 6.65123 16.1412 10.0133 16.1412C13.3753 16.1412 16.1105 13.4014 16.1105 10.0337ZM5.09239 10.0337C5.09239 7.31473 7.29988 5.10264 10.0133 5.10264C12.7266 5.10264 14.9341 7.31473 14.9341 10.0337C14.9341 12.7528 12.7266 14.9649 10.0133 14.9649C7.29988 14.9649 5.09239 12.7528 5.09239 10.0337Z" fill="#9DD549"/>
<path d="M16.11 10.0337C16.11 6.66607 13.3748 3.92627 10.0128 3.92627C6.65075 3.92627 3.91553 6.66607 3.91553 10.0337C3.91553 13.4014 6.65075 16.1412 10.0128 16.1412C13.3748 16.1412 16.11 13.4014 16.11 10.0337ZM5.0919 10.0337C5.0919 7.31473 7.2994 5.10264 10.0128 5.10264C12.7261 5.10264 14.9336 7.31473 14.9336 10.0337C14.9336 12.7528 12.7261 14.9649 10.0128 14.9649C7.2994 14.9649 5.0919 12.7528 5.0919 10.0337Z" fill="#9DD549"/>
<path d="M10.6011 13.3378V12.8468C11.6203 12.8468 12.3295 12.0469 12.3295 11.1464C12.3295 10.2087 11.5676 9.44584 10.6311 9.44584H9.39477C9.10688 9.44584 8.8727 9.21073 8.8727 8.92169C8.8727 8.64274 9.09225 8.39758 9.40297 8.39758H10.5867C10.7944 8.39966 10.9999 8.49326 11.1509 8.65462C11.3727 8.89185 11.7449 8.90424 11.9822 8.68234C12.2194 8.46044 12.2318 8.08824 12.0099 7.851C11.641 7.4566 11.1279 7.22756 10.6011 7.22149V6.73027C10.6011 6.40544 10.3378 6.14209 10.0129 6.14209C9.68808 6.14209 9.42473 6.40544 9.42473 6.73027V7.22125C8.40548 7.22125 7.69629 8.02118 7.69629 8.92173C7.69629 9.85942 8.45822 10.6223 9.39473 10.6223H10.6311C10.919 10.6223 11.1531 10.8574 11.1531 11.1464C11.1531 11.4374 10.9183 11.6706 10.6311 11.6706C10.6284 11.6706 10.6256 11.6705 10.6228 11.6705H9.33125C9.18471 11.669 9.02884 11.6159 8.89215 11.5209C8.62535 11.3355 8.25883 11.4015 8.07347 11.6682C7.88808 11.935 7.95403 12.3015 8.22079 12.4869C8.6235 12.7668 8.99834 12.8469 9.42469 12.8469V13.3379C9.42469 13.6627 9.68804 13.9261 10.0129 13.9261C10.3378 13.926 10.6011 13.6627 10.6011 13.3378Z" fill="#9DD549"/>
</svg>
